<?xml version="1.0" encoding="UTF-8"?>
<svg width="300px" height="300px" viewBox="0 0 300 300" version="1.1" xmlns="http://www.w3.org/2000/svg" xmlns:xlink="http://www.w3.org/1999/xlink">
    <title>3-04</title>
    <g id="Illusatrtion" stroke="none" stroke-width="1" fill="none" fill-rule="evenodd">
        <g id="1" transform="translate(-926.000000, -1035.000000)">
            <g id="3-04" transform="translate(926.000000, 1035.000000)">
                <rect id="Rectangle" x="0" y="0" width="300" height="300"></rect>
                <g id="Group-15" transform="translate(15.000000, 6.000000)">
                    <path d="M56.8958907,288.993984 L78.8870985,288.993984 L78.6788615,288.742712 C74.514123,283.64646 71.5057935,277.059232 71.1823322,270.394262 C63.9967699,273.888478 60.7954742,271.782508 61.160583,272.133734 C59.8958907,275.06571 58.0897824,280.449329 57.4942248,283.406293 C57.1378969,285.248701 56.9377415,287.117902 56.8958907,288.993984 Z" id="Path" fill="#C9C9C9" fill-rule="nonzero"></path>
                    <path d="M49.8519296,288.782971 C49.5988412,288.782971 49.3539486,288.69304 49.1578065,288.533087 C34.0667602,276.210888 21.8403649,260.749891 13.3285608,243.224896 C9.01134486,234.319917 5.70208222,224.960668 3.46229513,215.321148 C1.15784233,205.36864 -0.00376226242,195.185737 2.13162821e-14,184.969921 C2.13162821e-14,166.922721 3.53448393,149.430819 10.504868,132.945396 C24.0872303,100.905966 49.592232,75.4009647 81.6316612,61.8186025 C98.1018139,54.8537714 115.602045,51.3192966 133.649246,51.3192966 C151.696446,51.3192966 169.188348,54.8537714 185.673771,61.8241555 C217.713201,75.4065177 243.218202,100.911519 256.800564,132.950949 C263.770949,149.429431 267.305431,166.932439 267.305431,184.975474 C267.308802,195.187444 266.148141,205.36652 263.845914,215.315595 C259.388348,234.488075 250.734513,252.433451 238.507645,267.859324 C232.495426,275.451523 225.681841,282.37309 218.185109,288.503933 C217.708956,288.865802 217.031757,288.785641 216.65325,288.322605 C216.274742,287.859569 216.330865,287.179956 216.780204,286.785285 C247.477103,261.68857 265.084229,224.58075 265.084229,184.975474 C265.084229,112.509024 206.122638,53.5404905 133.649246,53.5404905 C61.1758537,53.5404905 2.21426181,112.502082 2.21426181,184.975474 C2.21426181,224.597409 19.8338824,261.716335 50.5557704,286.81305 C50.918972,287.110413 51.0559998,287.604012 50.8980628,288.046048 C50.7401259,288.488085 50.3213339,288.782971 49.8519296,288.782971 L49.8519296,288.782971 Z" id="Path" fill="#ff8e49" fill-rule="nonzero"></path>
                    <path d="M133.649246,0.694123091 C109.679787,0.694123091 90.2498935,18.6122166 90.2498935,40.7158723 C90.2498935,54.7552059 98.0907079,67.1036557 109.953272,74.2475706 L109.943554,74.2475706 C111.455354,81.5150393 108.095798,89.8347987 102.670532,98.6015733 C112.715881,96.3304026 121.134206,90.8273947 126.992605,80.2767237 L126.992605,80.2767237 C129.200017,80.5893356 131.426749,80.7456708 133.656187,80.7445627 C157.624257,80.7445627 177.055539,62.8264692 177.055539,40.7242018 C177.055539,18.6219343 157.617316,0.694123091 133.649246,0.694123091 Z" id="Path" fill="#FFFFFF" fill-rule="nonzero"></path>
                    <path d="M102.670532,99.2915317 C102.418846,99.2915317 102.186945,99.1550562 102.064471,98.9351792 C101.941997,98.7153022 101.948141,98.4463548 102.080527,98.2322999 C108.188811,88.3660342 110.491911,80.8681166 109.32162,74.6751504 C96.9370753,67.099491 89.5557704,54.4275798 89.5557704,40.7158723 C89.5557704,29.8292457 94.149477,19.5978714 102.49006,11.9055993 C110.830643,4.21332716 121.882471,5.32907052e-14 133.649246,5.32907052e-14 C145.41602,5.32907052e-14 156.481731,4.22859787 164.807043,11.9055993 C173.132355,19.5826006 177.742721,29.8292457 177.742721,40.7158723 C177.742721,51.6024988 173.149014,61.8338732 164.807043,69.5316983 C156.465072,77.2295234 145.41602,81.4303563 133.649246,81.4303563 C131.548024,81.4281072 129.449179,81.288988 127.366043,81.0138825 C121.783905,90.82323 113.751513,96.7968533 102.824627,99.2665433 C102.774456,99.2810491 102.722716,99.2894394 102.670532,99.2915317 Z M110.646006,74.2184174 C111.90931,80.5016196 109.836659,87.9412309 104.135132,97.5215178 C113.973632,94.8963443 121.25776,89.1392874 126.369283,79.9615919 C126.501783,79.6928986 126.791721,79.5395337 127.088394,79.5812124 C129.261824,79.8885691 131.454191,80.0425822 133.649246,80.0421101 C157.196677,80.0421101 176.354475,62.4002776 176.354475,40.7158723 C176.354475,19.0314669 157.196677,1.38824618 133.649246,1.38824618 C110.101814,1.38824618 90.9440166,19.0300787 90.9440166,40.7158723 C90.9440166,54.0360944 98.1837204,66.349838 110.311439,73.652013 C110.511027,73.7726258 110.636711,73.9854016 110.646006,74.2184174 L110.646006,74.2184174 Z" id="Shape" fill="#ee5b01" fill-rule="nonzero"></path>
                    <path d="M134.175391,60.4497918 C131.70771,60.4431374 129.251637,60.1117402 126.87044,59.464137 C120.612226,57.7788061 116.410005,54.4900509 115.951883,54.1193892 L113.064331,51.7871356 L115.722823,48.4969921 L118.608986,50.8264692 C118.761694,50.9500231 122.455817,53.893105 127.971319,55.3785285 C129.99346,55.9298517 132.079448,56.2122466 134.175391,56.2184174 C139.377149,56.2184174 144.259611,54.4039796 148.689505,50.8264692 L151.57428,48.4969921 L154.23416,51.7871356 L151.347996,54.1221657 C146.147626,58.3229986 140.369745,60.4525683 134.175391,60.4525683" id="Path" fill="#ff8e49" fill-rule="nonzero"></path>
                    <path d="M54.7510503,256.081444 L54.7066265,256.081444 C48.5108837,255.699676 42.8759925,252.719112 38.8389726,247.692272 C34.8852475,242.766775 32.7084775,236.2087 32.7084775,229.228598 C32.7084775,214.396576 43.701999,202.329781 57.2151873,202.329781 C62.064836,202.312257 66.8049025,203.771708 70.8047292,206.514114 C75.1554927,209.504396 78.4067653,213.930125 80.2073206,219.313744 C80.2942309,219.551017 80.2453332,219.816775 80.0796604,220.007575 C79.9139875,220.198374 79.657716,220.284069 79.4105974,220.231302 C79.1634788,220.178535 78.9645579,219.995644 78.8912632,219.753818 C74.9361498,207.930125 65.1018139,203.718186 57.2151873,203.718186 C44.4669226,203.718186 34.0967236,215.161499 34.0967236,229.228598 C34.0967236,243.020824 42.9939934,253.969921 54.7926977,254.698751 C55.1760513,254.710251 55.4774976,255.030344 55.465997,255.413697 C55.4544964,255.797051 55.1344039,256.098497 54.7510503,256.087315 L54.7510503,256.081444 Z" id="Path" fill="#ee5b01" fill-rule="nonzero"></path>
                    <path d="M80.2017676,228.653932 C79.818414,228.653932 79.5076445,228.343094 79.5076445,227.959741 C79.5076445,217.825544 76.0286996,204.694123 70.2063951,192.837112 C70.0970331,192.613925 70.1150477,192.349347 70.2536529,192.143043 C70.3922581,191.936739 70.6303965,191.820051 70.8783637,191.836935 C71.1263309,191.853818 71.3464547,192.001708 71.4558167,192.224896 C77.3725219,204.266543 80.9056084,217.629801 80.9056084,227.963906 C80.9045162,228.148972 80.8295643,228.325938 80.6974038,228.455492 C80.5652433,228.585046 80.3868186,228.656458 80.2017676,228.653932 Z" id="Path" fill="#ee5b01" fill-rule="nonzero"></path>
                    <path d="M56.6307357,288.649699 L56.5765941,288.649699 C56.1949807,288.620156 55.9093006,288.287277 55.9380008,287.905599 C56.6321239,278.729292 60.5192132,271.960204 60.6802498,271.677001 C60.8798074,271.363082 61.2913535,271.262277 61.6134013,271.448431 C61.935449,271.634586 62.0535041,272.04152 61.8810827,272.371124 C61.8324941,272.455807 57.9939934,279.173531 57.3220823,288.006941 C57.2952138,288.369036 56.9938261,288.649242 56.6307357,288.649699 L56.6307357,288.649699 Z" id="Path" fill="#ee5b01" fill-rule="nonzero"></path>
                    <path d="M65.8945024,288.391487 C65.5268412,288.392148 65.2224385,288.106009 65.2003794,287.73901 C64.882471,282.313744 65.4683109,276.874595 66.9898287,271.109209 C67.0879672,270.738506 67.4680383,270.517549 67.8387412,270.615687 C68.2094442,270.713826 68.4304013,271.093897 68.3322627,271.4646 C66.8482276,277.08422 66.2776584,282.381768 66.5872373,287.657103 C66.609348,288.039647 66.3172914,288.367745 65.9347616,288.390097 L65.8945024,288.391487 Z" id="Path" fill="#ee5b01" fill-rule="nonzero"></path>
                    <path d="M63.4595186,272.923646 C61.143924,272.923646 58.9588245,272.04211 57.2040813,270.323461 C55.2272188,268.379917 53.9472558,265.518741 53.5946413,262.252198 C53.2142618,258.694123 53.9319851,254.78621 55.6672928,250.947709 C57.0543184,247.909542 58.9750609,245.144801 61.3382785,242.784822 C64.8699768,239.226747 72.709403,232.009255 79.6825635,227.52522 C79.8911967,227.381179 80.1617646,227.362344 80.3883433,227.476087 C80.614922,227.58983 80.7614643,227.818056 80.7706007,228.071418 C80.7797371,228.324779 80.650014,228.562967 80.4322165,228.692735 C73.5603979,233.111522 65.8153724,240.244331 62.322545,243.763535 C60.0780216,246.00385 58.2540701,248.629042 56.9375381,251.514114 C55.3021841,255.123554 54.6261082,258.787136 54.9787227,262.099491 C55.2924663,265.046738 56.4280517,267.613605 58.1716889,269.318371 C60.6316612,271.729755 63.9606755,272.197594 67.3049606,270.602499 C67.5305938,270.475764 67.8079943,270.485073 68.0246233,270.62665 C68.2412522,270.768227 68.3611335,271.018559 68.3356324,271.276089 C68.3101313,271.533619 68.1434828,271.755579 67.9032947,271.85192 C66.52069,272.536623 65.0022372,272.902836 63.4595186,272.923646 L63.4595186,272.923646 Z" id="Path" fill="#ee5b01" fill-rule="nonzero"></path>
                    <path d="M40.5520684,210.588616 C40.2221735,210.588616 39.9378067,210.356548 39.8718278,210.033318 C36.0874687,191.389172 37.3049606,173.857011 43.4895973,157.922721 C43.5810654,157.686571 43.7938832,157.518977 44.0448958,157.485423 C53.7376306,156.183248 63.974558,156.533087 74.4724756,158.523832 C82.860259,160.114762 91.4326792,162.752429 99.9509578,166.36187 C114.452577,172.506247 123.914863,179.448866 124.007876,179.518279 C124.278145,179.756966 124.32065,180.162845 124.105695,180.452347 C123.89074,180.741849 123.489915,180.818556 123.183258,180.628876 C123.090245,180.560851 113.734854,173.700139 99.3748356,167.619621 C86.2309208,162.054142 66.0985746,156.029153 44.6376769,158.802869 C38.6793243,174.383156 37.5340212,191.522443 41.2336973,209.751504 C41.2705542,209.931919 41.2342126,210.119585 41.1326712,210.273199 C41.0311298,210.426813 40.8727107,210.533784 40.6922813,210.570569 C40.6462937,210.581419 40.5993044,210.587467 40.5520684,210.588616 L40.5520684,210.588616 Z" id="Path" fill="#ee5b01" fill-rule="nonzero"></path>
                    <path d="M207.662203,288.644166 C207.309623,288.646779 207.011086,288.384663 206.968079,288.034706 C205.597881,276.894031 201.340129,266.811199 199.57428,262.992133 C199.427267,262.647131 199.58087,262.24774 199.921174,262.090156 C200.261479,261.932573 200.665417,262.073787 200.83342,262.40907 C202.628422,266.28783 206.952809,276.53031 208.34522,287.86534 C208.391779,288.245569 208.121512,288.591634 207.741333,288.638593 C207.715108,288.642197 207.688673,288.644166 207.662203,288.644166 L207.662203,288.644166 Z" id="Path" fill="#ee5b01" fill-rule="nonzero"></path>
                    <path d="M211.631198,251.851458 C211.296471,251.851458 211.00982,251.611537 210.94957,251.282277 C209.310051,242.258677 205.363267,234.41925 198.152716,225.867654 C197.937458,225.612783 197.93396,225.240827 198.144387,224.981953 C213.619167,205.96298 217.718658,184.057844 210.670532,158.000463 C184.660352,151.753355 160.081453,155.801481 135.541425,170.355854 C135.348653,170.470564 135.11233,170.485043 134.906997,170.394725 C125.594641,166.29801 118.593716,167.440537 113.504405,173.88894 C113.350654,174.08361 113.104727,174.181466 112.859262,174.145648 C112.613798,174.10983 112.406089,173.945779 112.314376,173.715291 C112.222663,173.484804 112.260881,173.222897 112.414632,173.028228 C117.891263,166.086997 125.325322,164.765386 135.138834,168.98149 C147.921805,161.443313 160.996307,156.65664 174.009727,154.754743 C186.147163,152.980565 198.720509,153.644146 211.399361,156.739935 C211.644635,156.799671 211.838139,156.98786 211.904683,157.231374 C215.672383,170.963906 216.372059,183.841277 213.987052,195.505322 C212.843991,201.07547 210.990817,206.475896 208.472938,211.574271 C206.023338,216.494134 203.044108,221.131958 199.588163,225.405368 C206.637677,233.87367 210.694132,242.031004 212.322545,251.026839 C212.390946,251.402698 212.142767,251.763177 211.767247,251.83341 C211.722685,251.844339 211.677068,251.85039 211.631198,251.851458 L211.631198,251.851458 Z" id="Path" fill="#ee5b01" fill-rule="nonzero"></path>
                    <path d="M56.8875612,244.888015 C50.2670152,244.888015 44.88062,237.832948 44.88062,229.160574 C44.88062,220.4882 50.2670152,213.431745 56.8875612,213.431745 C63.5081073,213.431745 68.8945024,220.486812 68.8945024,229.160574 C68.8945024,237.834336 63.5081073,244.888015 56.8875612,244.888015 Z M57.0472095,216.204072 C51.6122257,216.204072 47.1906616,222.058306 47.1906616,229.253586 C47.1906616,236.448866 51.6122257,242.3031 57.0472095,242.3031 C62.4821933,242.3031 66.9037574,236.448866 66.9037574,229.253586 C66.9037574,222.058306 62.4821933,216.204072 57.0472095,216.204072 L57.0472095,216.204072 Z" id="Shape" fill="#ee5b01" fill-rule="nonzero"></path>
                    <path d="M208.903295,240.993986 C208.601631,240.994692 208.334046,240.800479 208.241221,240.513451 C208.148396,240.226422 208.251586,239.912301 208.496539,239.736233 C213.659426,236.015733 216.621943,229.788061 216.621943,222.649699 C216.621943,216.900972 214.141148,210.919019 209.986127,206.647385 C209.812536,206.469579 209.746991,206.21267 209.81418,205.973433 C209.88137,205.734197 210.071086,205.548978 210.311866,205.487547 C210.552646,205.426117 210.807909,205.497807 210.981499,205.675613 C215.38224,210.199907 218.01019,216.544193 218.01019,222.645534 C218.01019,230.235076 214.838047,236.87367 209.308663,240.857936 C209.191222,240.944811 209.049367,240.99242 208.903295,240.993986 Z" id="Path" fill="#ee5b01" fill-rule="nonzero"></path>
                    <path d="M189.887098,257.421101 C187.371596,257.421101 185.64323,257.314206 185.444711,257.301712 C185.061357,257.276794 184.770788,256.945825 184.795706,256.562471 C184.820624,256.179117 185.151593,255.888548 185.534947,255.913466 C185.665442,255.921795 198.678862,256.729755 206.522452,253.776955 C212.684877,251.457196 213.705238,247.089773 213.741333,246.905137 C213.828751,246.539059 214.191991,246.309345 214.560204,246.387279 C214.928418,246.465214 215.167436,246.8224 215.099037,247.192503 C215.054614,247.407682 213.919028,252.467839 207.00695,255.076354 C201.757992,257.058769 194.500241,257.421101 189.887098,257.421101 Z" id="Path" fill="#ee5b01" fill-rule="nonzero"></path>
                    <path d="M191.400287,263.823693 C188.328098,263.823693 186.241564,263.625174 186.019445,263.602962 C185.772698,263.578163 185.557925,263.42361 185.456028,263.197523 C185.354131,262.971435 185.380591,262.708159 185.52544,262.50687 C185.67029,262.305581 185.911523,262.196858 186.158269,262.221657 C186.297094,262.235539 200.629347,263.589079 210.744109,258.982878 C215.386404,256.868579 218.586312,252.63304 219.304035,247.653401 C220.030758,242.733557 218.190894,237.783785 214.427126,234.533087 C214.137311,234.28199 214.105923,233.843494 214.35702,233.553679 C214.608116,233.263864 215.046612,233.232476 215.336427,233.483572 C219.458342,237.043448 221.473606,242.463921 220.678399,247.85192 C219.892651,253.300787 216.394271,257.934752 211.320231,260.246182 C204.72745,263.247571 196.62981,263.823693 191.400287,263.823693 Z" id="Path" fill="#ee5b01" fill-rule="nonzero"></path>
                    <path d="M174.36373,270.658029 C172.075161,270.653441 170.221482,268.79852 170.218427,266.509949 L170.218427,253.303563 C170.218427,251.973623 171.241564,250.515965 172.70894,249.759371 C174.113845,249.033318 175.588163,249.090236 176.758454,249.916242 L186.54559,256.470153 L186.560861,256.481259 C187.648067,257.253281 188.297853,258.500888 188.307306,259.834285 C188.316556,261.167683 187.684332,262.424281 186.608061,263.211476 C185.232309,264.216566 183.494225,265.364646 181.65341,266.579361 C179.977797,267.689958 178.245266,268.831097 176.766784,269.884776 C176.066059,270.386928 175.225804,270.657305 174.36373,270.658029 Z M174.683026,250.642289 C174.215726,250.652711 173.757374,250.77253 173.344757,250.992133 C172.353549,251.504396 171.606673,252.49838 171.606673,253.303563 L171.606673,266.509949 C171.606421,267.54177 172.182619,268.48728 173.099766,268.960033 C174.016914,269.432787 175.121322,269.353563 175.961601,268.754743 C177.459519,267.687182 179.203156,266.533549 180.888487,265.422952 C182.715419,264.216566 184.43962,263.076816 185.788996,262.091161 C186.503813,261.568524 186.924268,260.734493 186.919363,259.849005 C186.914371,258.963517 186.484621,258.134236 185.764007,257.619621 L175.97826,251.06571 L175.962989,251.055993 C175.590887,250.786073 175.142717,250.64122 174.683026,250.642289 L174.683026,250.642289 Z" id="Shape" fill="#ee5b01" fill-rule="nonzero"></path>
                    <line x1="248.069884" y1="207.056918" x2="251.943091" y2="212.147617" id="Path"></line>
                    <path d="M198.705238,154.477094 C198.705238,154.477094 162.610837,110.621009 104.092096,124.768626 C45.5733548,138.916242 44.3655806,207.220731 44.3655806,207.220731 C52.5742803,201.806571 60.9023692,201.691347 69.337353,206.447478 C69.337353,206.447478 66.687191,158.322536 112.050912,148.540953 C139.006488,142.499306 158.602971,148.617307 170.963915,155.566867 C179.336427,154.342434 188.726525,154.121703 198.705238,154.477094 Z" id="Path" fill="#FFFFFF" fill-rule="nonzero"></path>
                    <path d="M44.3655806,207.90936 C44.1793024,207.90936 44.0008293,207.834488 43.8702908,207.7016 C43.7397523,207.568712 43.6681045,207.388932 43.671345,207.202684 C43.671345,207.030541 44.0643312,189.780194 51.6413789,171.03193 C56.0990374,160.003702 62.1337435,150.613605 69.5802961,143.128181 C78.8982044,133.753355 90.4539657,127.349375 103.928283,124.093938 C117.370671,120.845442 130.747811,120.397038 143.686266,122.76261 C154.037029,124.654789 164.128191,128.340583 173.682101,133.717261 C189.945405,142.871356 199.149477,153.931513 199.241101,154.041185 C199.414405,154.251235 199.448877,154.543219 199.329252,154.787852 C199.209627,155.032485 198.958006,155.184572 198.685803,155.17677 C187.760305,154.786673 178.726987,155.139287 171.069421,156.254049 C170.91771,156.276094 170.762969,156.247293 170.629347,156.172143 C159.000009,149.633503 139.42435,143.122628 112.209172,149.218417 C93.6358259,153.223508 80.8958907,164.053216 74.3378157,181.407682 C69.4386949,194.373901 70.0342526,206.290606 70.0342526,206.408607 C70.0482359,206.661845 69.9229881,206.90255 69.7075748,207.036424 C69.4921616,207.170298 69.2208817,207.176027 69.0000092,207.051365 C60.6122257,202.322999 52.679787,202.56733 44.7515131,207.801018 C44.6359532,207.873462 44.5019593,207.911058 44.3655806,207.90936 L44.3655806,207.90936 Z M126.975946,122.677927 C119.319429,122.692547 111.691902,123.619016 104.254521,125.43776 C74.3128273,132.673299 59.8167607,154.509024 52.9282831,171.552522 C46.6409161,187.100879 45.3665061,201.591393 45.1180101,205.921333 C52.7242109,201.354003 60.619167,201.133272 68.6196297,205.264692 C68.604359,201.850995 68.948644,191.723739 73.0342526,180.910689 C75.9787227,173.118464 80.2600739,166.489588 85.7589171,161.2087 C92.6335122,154.607589 101.430828,150.116613 111.905146,147.857936 C124.200842,145.102267 136.042582,144.64137 147.095798,146.491902 C155.665442,147.927348 163.739482,150.73577 171.097186,154.840814 C178.406303,153.795465 186.935687,153.431745 197.118473,153.730217 C194.298945,150.655252 185.894502,142.168903 172.95466,134.893105 C162.123563,128.80981 146.394734,122.677927 126.975946,122.677927 Z" id="Shape" fill="#ee5b01" fill-rule="nonzero"></path>
                    <path d="M60.9051457,203.900069 L60.9051457,203.900069 C60.5217921,203.900069 60.2110226,203.589277 60.2110226,203.205923 C60.2110226,203.067099 60.3678944,189.252661 67.1008884,174.63304 C71.0615547,166.025914 76.4895973,158.826469 83.2336973,153.223508 C91.6617398,146.219806 102.167987,141.716335 114.469236,139.83665 C114.714495,139.799204 114.9611,139.895446 115.116159,140.089123 C115.271217,140.2828 115.311171,140.544488 115.220971,140.775611 C115.130771,141.006734 114.92412,141.172179 114.678862,141.209625 C87.4484127,145.374364 74.4752521,161.972235 68.3877926,175.167515 C61.7658583,189.520592 61.6048217,203.071263 61.6048217,203.210088 C61.6037216,203.394424 61.5293419,203.570752 61.3980859,203.700185 C61.26683,203.829618 61.0894792,203.901524 60.9051457,203.900069 L60.9051457,203.900069 Z" id="Path" fill="#ee5b01" fill-rule="nonzero"></path>
                    <path d="M124.878306,140.054604 C124.63032,140.063532 124.396408,139.939482 124.264684,139.729183 C124.132959,139.518885 124.123434,139.254287 124.239695,139.03506 C124.355957,138.815834 124.580343,138.675286 124.828329,138.666358 C128.878833,138.367306 132.941934,138.274636 137.00186,138.388709 C137.249846,138.395901 137.475159,138.534845 137.592924,138.753203 C137.710689,138.971561 137.703015,139.23616 137.572794,139.447326 C137.442573,139.658493 137.209587,139.784147 136.961601,139.776955 C132.948847,139.664255 128.932955,139.756926 124.929671,140.054604 L124.878306,140.054604 Z" id="Path" fill="#ee5b01" fill-rule="nonzero"></path>
                    <path d="M228.53726,288.709394 L33.3234705,288.709394 C32.9401169,288.709394 32.6293474,288.398624 32.6293474,288.015271 C32.6293474,287.631917 32.9401169,287.321148 33.3234705,287.321148 L228.53726,287.321148 C228.920614,287.321148 229.231384,287.631917 229.231384,288.015271 C229.231384,288.398624 228.920614,288.709394 228.53726,288.709394 Z" id="Path" fill="#ee5b01" fill-rule="nonzero"></path>
                    <path d="M203.944479,272.863952 C203.561126,272.88772 203.231089,272.596218 203.207321,272.212864 C203.183553,271.829511 203.475054,271.499474 203.858408,271.475706 C209.036566,270.816289 211.546515,264.884313 211.278584,259.636742 C211.259033,259.253389 211.553953,258.92677 211.937307,258.907219 C212.32066,258.887668 212.647279,259.182588 212.66683,259.565942 C212.822314,262.620083 212.122638,265.733919 210.745497,268.113373 C209.158732,270.856548 206.838973,272.496067 204.034715,272.852846 C204.00494,272.858696 203.974784,272.862408 203.944479,272.863952 Z" id="Path" fill="#ee5b01" fill-rule="nonzero"></path>
                    <circle id="Oval" fill="#ee5b01" fill-rule="nonzero" cx="111.701073" cy="227.22397" r="6.36927348"></circle>
                    <path d="M108.673309,230.787599 C108.34786,230.787475 108.049848,230.605237 107.901444,230.315595 L106.981036,228.510875 C106.762908,228.084969 106.931345,227.562876 107.357251,227.344748 C107.783157,227.12662 108.30525,227.295057 108.523378,227.720963 L109.443785,229.525683 C109.548958,229.730134 109.568396,229.968049 109.497803,230.18686 C109.42721,230.405672 109.272398,230.58737 109.06757,230.691809 C108.945737,230.754904 108.810511,230.787759 108.673309,230.787599 Z" id="Path" fill="#FFFFFF" fill-rule="nonzero"></path>
                    <path d="M114.204081,231.782972 C113.811425,231.783627 113.467434,231.520095 113.365856,231.140805 C113.264278,230.761514 113.43052,230.361336 113.770949,230.165664 L114.360953,229.826932 C114.629522,229.672684 114.959981,229.673434 115.227847,229.828898 C115.495714,229.984362 115.660294,230.270922 115.659594,230.580633 C115.65889,230.890345 115.493011,231.176155 115.224442,231.330403 L114.634438,231.669135 C114.503375,231.74398 114.355009,231.783226 114.204081,231.782972 L114.204081,231.782972 Z" id="Path" fill="#FFFFFF" fill-rule="nonzero"></path>
                    <circle id="Oval" fill="#ee5b01" fill-rule="nonzero" cx="156.57752" cy="227.22397" r="6.36927348"></circle>
                    <path d="M153.551143,230.787599 C153.225515,230.788114 152.927196,230.605688 152.779278,230.315595 L151.857483,228.510875 C151.639354,228.084969 151.807791,227.562876 152.233697,227.344748 C152.659603,227.12662 153.181696,227.295057 153.399824,227.720963 L154.32162,229.525683 C154.458632,229.794277 154.446377,230.114744 154.289252,230.372089 C154.132126,230.629435 153.852663,230.786755 153.551143,230.787599 L153.551143,230.787599 Z" id="Path" fill="#FFFFFF" fill-rule="nonzero"></path>
                    <path d="M159.080527,231.782972 C158.68813,231.782997 158.34472,231.519255 158.243513,231.140133 C158.142305,230.761012 158.308579,230.361208 158.648783,230.165664 L159.238787,229.826932 C159.653959,229.588869 160.183511,229.732445 160.421573,230.147617 C160.659636,230.562789 160.51606,231.09234 160.100888,231.330403 L159.510884,231.669135 C159.379822,231.74398 159.231455,231.783226 159.080527,231.782972 L159.080527,231.782972 Z" id="Path" fill="#FFFFFF" fill-rule="nonzero"></path>
                    <path d="M135.87044,244.663194 C133.853324,244.647918 131.872847,244.122593 130.113383,243.136048 C127.320747,241.573382 125.154379,239.093118 123.981499,236.115687 L125.528005,235.496529 C127.667293,240.84683 133.214725,244.01342 138.161046,242.705692 C141.533096,241.814438 144.269329,238.882462 145.314678,235.056455 L146.922267,235.493753 C145.725599,239.891717 142.531245,243.267932 138.59279,244.316057 C137.704345,244.5499 136.789138,244.666576 135.87044,244.663194 L135.87044,244.663194 Z" id="Path" fill="#ee5b01" fill-rule="nonzero"></path>
                    <ellipse id="Oval" fill="#C9C9C9" fill-rule="nonzero" cx="172.062017" cy="238.138362" rx="7.42711708" ry="4.51180009"></ellipse>
                    <ellipse id="Oval" fill="#C9C9C9" fill-rule="nonzero" cx="99.0402683" cy="238.97131" rx="7.42711708" ry="4.51180009"></ellipse>
                </g>
            </g>
        </g>
    </g>
</svg>